<?xml version="1.0" encoding="UTF-8"?>
<svg xmlns="http://www.w3.org/2000/svg" xmlns:xlink="http://www.w3.org/1999/xlink" viewBox="0 0 16 16" width="16px" height="16px">
<g id="surface49372509">
<path style="fill-rule:nonzero;fill:rgb(100%,100%,100%);fill-opacity:1;stroke-width:10;stroke-linecap:butt;stroke-linejoin:round;stroke:rgb(85.09804%,79.607844%,94.509804%);stroke-opacity:1;stroke-miterlimit:10;" d="M 29.032821 160.163981 L 29.032821 7.525711 L 109.195685 7.525711 L 147.27749 45.607515 L 147.27749 160.163981 Z M 29.032821 160.163981 " transform="matrix(0.087907,0,0,0.087907,0.44,0.44)"/>
<path style="fill-rule:nonzero;fill:rgb(47.058824%,54.509807%,61.176473%);fill-opacity:1;stroke-width:10;stroke-linecap:butt;stroke-linejoin:round;stroke:rgb(85.09804%,79.607844%,94.509804%);stroke-opacity:1;stroke-miterlimit:10;" d="M 108.751324 8.592179 L 30.099289 8.592179 L 30.099289 159.097513 L 146.211021 159.097513 L 146.211021 46.051877 L 108.751324 8.592179 M 109.640047 6.459243 L 148.343958 45.163153 L 148.343958 161.230449 L 27.966353 161.230449 L 27.966353 6.459243 Z M 109.640047 6.459243 " transform="matrix(0.087907,0,0,0.087907,0.44,0.44)"/>
<path style="fill-rule:nonzero;fill:rgb(100%,100%,100%);fill-opacity:1;stroke-width:10;stroke-linecap:butt;stroke-linejoin:round;stroke:rgb(85.09804%,79.607844%,94.509804%);stroke-opacity:1;stroke-miterlimit:10;" d="M 108.573579 46.229622 L 108.573579 7.525711 L 109.195685 7.525711 L 147.27749 45.607515 L 147.27749 46.229622 Z M 108.573579 46.229622 " transform="matrix(0.087907,0,0,0.087907,0.44,0.44)"/>
<path style="fill-rule:nonzero;fill:rgb(47.058824%,54.509807%,61.176473%);fill-opacity:1;stroke-width:10;stroke-linecap:butt;stroke-linejoin:round;stroke:rgb(85.09804%,79.607844%,94.509804%);stroke-opacity:1;stroke-miterlimit:10;" d="M 109.640047 9.480903 L 109.640047 45.163153 L 145.322298 45.163153 L 109.640047 9.480903 M 109.640047 6.459243 L 148.343958 45.163153 L 148.343958 47.29609 L 107.507111 47.29609 L 107.507111 6.459243 Z M 109.640047 6.459243 " transform="matrix(0.087907,0,0,0.087907,0.44,0.44)"/>
<path style=" stroke:none;fill-rule:nonzero;fill:rgb(100%,100%,100%);fill-opacity:1;" d="M 2.992188 14.519531 L 2.992188 1.101562 L 10.039062 1.101562 L 13.386719 4.449219 L 13.386719 14.519531 Z M 2.992188 14.519531 "/>
<path style=" stroke:none;fill-rule:nonzero;fill:rgb(47.058824%,54.509807%,61.176473%);fill-opacity:1;" d="M 10 1.195312 L 13.292969 4.488281 L 13.292969 14.425781 L 3.085938 14.425781 L 3.085938 1.195312 L 10 1.195312 M 10.078125 1.007812 L 2.898438 1.007812 L 2.898438 14.613281 L 13.480469 14.613281 L 13.480469 4.410156 Z M 10.078125 1.007812 "/>
<path style=" stroke:none;fill-rule:nonzero;fill:rgb(100%,100%,100%);fill-opacity:1;" d="M 9.984375 4.503906 L 9.984375 1.101562 L 10.039062 1.101562 L 13.386719 4.449219 L 13.386719 4.503906 Z M 9.984375 4.503906 "/>
<path style=" stroke:none;fill-rule:nonzero;fill:rgb(47.058824%,54.509807%,61.176473%);fill-opacity:1;" d="M 10.078125 1.273438 L 13.214844 4.410156 L 10.078125 4.410156 L 10.078125 1.273438 M 10.078125 1.007812 L 9.890625 1.007812 L 9.890625 4.597656 L 13.480469 4.597656 L 13.480469 4.410156 Z M 10.078125 1.007812 "/>
</g>
</svg>
